<svg version="1.1" xmlns="http://www.w3.org/2000/svg" viewBox="0 0 992.5519694158445 503.7629311545841" width="992.5519694158445" height="503.7629311545841" filter="invert(93%) hue-rotate(180deg)">
  <!-- svg-source:excalidraw -->
  
  <defs>
    <style class="style-fonts">
      @font-face {
        font-family: "Virgil";
        src: url("https://unpkg.com/@excalidraw/excalidraw@undefined/dist/excalidraw-assets/Virgil.woff2");
      }
      @font-face {
        font-family: "Cascadia";
        src: url("https://unpkg.com/@excalidraw/excalidraw@undefined/dist/excalidraw-assets/Cascadia.woff2");
      }
      @font-face {
        font-family: "Assistant";
        src: url("https://unpkg.com/@excalidraw/excalidraw@undefined/dist/excalidraw-assets/Assistant-Regular.woff2");
      }
    </style>
    
  </defs>
  <rect x="0" y="0" width="992.5519694158445" height="503.7629311545841" fill="#ffffff"></rect><g stroke-linecap="round" transform="translate(10 370.85834343911307) rotate(0 126.0250015258789 26.25)"><path d="M0 0 L252.05 0 L252.05 52.5 L0 52.5" stroke="none" stroke-width="0" fill="#81C784"></path><path d="M0 0 C72.55 0, 145.09 0, 252.05 0 M0 0 C97.66 0, 195.32 0, 252.05 0 M252.05 0 C252.05 17.94, 252.05 35.88, 252.05 52.5 M252.05 0 C252.05 16.19, 252.05 32.38, 252.05 52.5 M252.05 52.5 C160.51 52.5, 68.97 52.5, 0 52.5 M252.05 52.5 C182.76 52.5, 113.47 52.5, 0 52.5 M0 52.5 C0 35.62, 0 18.74, 0 0 M0 52.5 C0 37.01, 0 21.52, 0 0" stroke="#1e1e1e" stroke-width="2" fill="none"></path></g><g transform="translate(37.821876525878906 385.60834343911307) rotate(0 98.203125 11.5)"><text x="98.203125" y="0" font-family="Helvetica, Segoe UI Emoji" font-size="20px" fill="#1e1e1e" text-anchor="middle" style="white-space: pre;" direction="ltr" dominant-baseline="text-before-edge">Web Scraping Module</text></g><g stroke-linecap="round" transform="translate(349.227643582406 369.1134777459948) rotate(0 119.51875305175781 26.25)"><path d="M0 0 L239.04 0 L239.04 52.5 L0 52.5" stroke="none" stroke-width="0" fill="#FFB74D"></path><path d="M0 0 C53.44 0, 106.89 0, 239.04 0 M0 0 C56.9 0, 113.8 0, 239.04 0 M239.04 0 C239.04 20.91, 239.04 41.83, 239.04 52.5 M239.04 0 C239.04 10.94, 239.04 21.88, 239.04 52.5 M239.04 52.5 C162.53 52.5, 86.03 52.5, 0 52.5 M239.04 52.5 C146.71 52.5, 54.37 52.5, 0 52.5 M0 52.5 C0 41.33, 0 30.16, 0 0 M0 52.5 C0 39.37, 0 26.24, 0 0" stroke="#1e1e1e" stroke-width="2" fill="none"></path></g><g transform="translate(376.48077163416383 383.8634777459948) rotate(0 92.265625 11.5)"><text x="92.265625" y="0" font-family="Helvetica, Segoe UI Emoji" font-size="20px" fill="#1e1e1e" text-anchor="middle" style="white-space: pre;" direction="ltr" dominant-baseline="text-before-edge">Backend (API Layer)</text></g><g stroke-linecap="round" transform="translate(349.65706327047496 183.86938293883742) rotate(0 117.0625 26.25)"><path d="M0 0 L234.13 0 L234.13 52.5 L0 52.5" stroke="none" stroke-width="0" fill="#FFF176"></path><path d="M0 0 C90.15 0, 180.3 0, 234.13 0 M0 0 C75.33 0, 150.66 0, 234.13 0 M234.13 0 C234.13 17.73, 234.13 35.46, 234.13 52.5 M234.13 0 C234.13 15.59, 234.13 31.18, 234.13 52.5 M234.13 52.5 C164.78 52.5, 95.44 52.5, 0 52.5 M234.13 52.5 C167.07 52.5, 100.01 52.5, 0 52.5 M0 52.5 C0 31.85, 0 11.19, 0 0 M0 52.5 C0 34.53, 0 16.56, 0 0" stroke="#1e1e1e" stroke-width="2" fill="none"></path></g><g transform="translate(379.46370389547496 198.61938293883742) rotate(0 87.255859375 11.5)"><text x="87.255859375" y="0" font-family="Helvetica, Segoe UI Emoji" font-size="20px" fill="#1e1e1e" text-anchor="middle" style="white-space: pre;" direction="ltr" dominant-baseline="text-before-edge">Frontend (UI Layer)</text></g><g stroke-linecap="round" transform="translate(675.7519511052974 370.85834343911307) rotate(0 153.40000915527355 26.25)"><path d="M0 0 L306.8 0 L306.8 52.5 L0 52.5" stroke="none" stroke-width="0" fill="#E57373"></path><path d="M0 0 C114.69 0, 229.37 0, 306.8 0 M0 0 C85.73 0, 171.46 0, 306.8 0 M306.8 0 C306.8 10.89, 306.8 21.78, 306.8 52.5 M306.8 0 C306.8 11.67, 306.8 23.33, 306.8 52.5 M306.8 52.5 C194.34 52.5, 81.88 52.5, 0 52.5 M306.8 52.5 C227.87 52.5, 148.95 52.5, 0 52.5 M0 52.5 C0 40.62, 0 28.74, 0 0 M0 52.5 C0 35.73, 0 18.95, 0 0" stroke="#1e1e1e" stroke-width="2" fill="none"></path></g><g transform="translate(711.2955149480708 385.60834343911307) rotate(0 117.8564453125 11.5)"><text x="117.8564453125" y="0" font-family="Helvetica, Segoe UI Emoji" font-size="20px" fill="#1e1e1e" text-anchor="middle" style="white-space: pre;" direction="ltr" dominant-baseline="text-before-edge">Machine Learning Pipeline</text></g><g stroke-linecap="round" transform="translate(261.2431668768131 10) rotate(0 198.7375030517578 26.25)"><path d="M0 0 L397.48 0 L397.48 52.5 L0 52.5" stroke="none" stroke-width="0" fill="#64B5F6"></path><path d="M0 0 C91.5 0, 183 0, 397.48 0 M0 0 C102.45 0, 204.9 0, 397.48 0 M397.48 0 C397.48 20.9, 397.48 41.79, 397.48 52.5 M397.48 0 C397.48 20.46, 397.48 40.93, 397.48 52.5 M397.48 52.5 C270.28 52.5, 143.08 52.5, 0 52.5 M397.48 52.5 C270.32 52.5, 143.17 52.5, 0 52.5 M0 52.5 C0 38.73, 0 24.95, 0 0 M0 52.5 C0 41.52, 0 30.53, 0 0" stroke="#1e1e1e" stroke-width="2" fill="none"></path></g><g transform="translate(307.13399024107093 24.75) rotate(0 152.8466796875 11.5)"><text x="152.8466796875" y="0" font-family="Helvetica, Segoe UI Emoji" font-size="20px" fill="#1e1e1e" text-anchor="middle" style="white-space: pre;" direction="ltr" dominant-baseline="text-before-edge">Cloud Integration (Azure Services)</text></g><g stroke-linecap="round"><g transform="translate(452.24507394388047 66.35598914077741) rotate(0 0 58.78567597513896)"><path d="M0.09 0.17 C0.25 19.73, 0.81 97.46, 0.95 116.89 M-1.32 -0.78 C-1.24 18.97, 0.18 98.33, 0.49 118.08" stroke="#1e1e1e" stroke-width="2" fill="none"></path></g><g transform="translate(452.24507394388047 66.35598914077741) rotate(0 0 58.78567597513896)"><path d="M-10.24 90.06 C-6.85 100.02, -5.05 108.31, 0.49 118.08 M-10.24 90.06 C-8.06 95.94, -5.05 103.8, 0.49 118.08" stroke="#1e1e1e" stroke-width="2" fill="none"></path></g><g transform="translate(452.24507394388047 66.35598914077741) rotate(0 0 58.78567597513896)"><path d="M10.28 89.72 C7.52 99.8, 3.17 108.18, 0.49 118.08 M10.28 89.72 C7.64 95.85, 5.84 103.78, 0.49 118.08" stroke="#1e1e1e" stroke-width="2" fill="none"></path></g></g><mask></mask><g mask="url(#mask-W66Hgd9ubsQHoR8aCRz8_)" stroke-linecap="round"><g transform="translate(450.8714931079876 69.37772027443492) rotate(0 -166.46781177031596 149.9858581978013)"><path d="M-0.23 -0.11 C-46.98 12.21, -225.15 24.85, -280.75 74.79 C-336.36 124.74, -325.32 262.08, -333.84 299.55 M-1.81 -1.21 C-48.74 11.14, -227.06 25.48, -282 75.79 C-336.93 126.1, -322.64 263.2, -331.41 300.65" stroke="#1e1e1e" stroke-width="2" fill="none"></path></g><g transform="translate(450.8714931079876 69.37772027443492) rotate(0 -166.46781177031596 149.9858581978013)"><path d="M-339.54 271.77 C-337.24 278.9, -336.5 286.39, -331.41 300.65 M-339.54 271.77 C-336.43 279.51, -335.61 286.85, -331.41 300.65" stroke="#1e1e1e" stroke-width="2" fill="none"></path></g><g transform="translate(450.8714931079876 69.37772027443492) rotate(0 -166.46781177031596 149.9858581978013)"><path d="M-319.08 273.3 C-322.49 279.97, -327.46 287.03, -331.41 300.65 M-319.08 273.3 C-321.4 280.58, -326 287.5, -331.41 300.65" stroke="#1e1e1e" stroke-width="2" fill="none"></path></g></g><mask id="mask-W66Hgd9ubsQHoR8aCRz8_"><rect x="0" y="0" fill="#fff" width="883.8071166486195" height="469.3494366700375"></rect><rect x="114.76823017894344" y="120.19470880379185" fill="#000" width="111.81991577148438" height="50" opacity="1"></rect></mask><g transform="translate(114.76823017894344 120.19470880379185) rotate(0 169.07108196302852 98.900006541874)"><text x="55.90995788574219" y="0" font-family="Virgil, Segoe UI Emoji" font-size="20px" fill="#1e1e1e" text-anchor="middle" style="white-space: pre;" direction="ltr" dominant-baseline="text-before-edge">Storage &amp; </text><text x="55.90995788574219" y="25" font-family="Virgil, Segoe UI Emoji" font-size="20px" fill="#1e1e1e" text-anchor="middle" style="white-space: pre;" direction="ltr" dominant-baseline="text-before-edge">Scheduling</text></g><g mask="url(#mask-4xjIBIRbSsV3gFrY3KftW)" stroke-linecap="round"><g transform="translate(449.7727961024816 66.90544243303577) rotate(0 187.89437342038082 151.63409232716975)"><path d="M-0.39 0.7 C51.41 18.21, 246.85 55.86, 309.71 106.23 C372.56 156.61, 365.88 270.28, 376.73 302.93 M1.61 0.02 C53.33 18.21, 246.2 56.91, 308.68 107.59 C371.16 158.26, 365.48 271.56, 376.46 304.07" stroke="#1e1e1e" stroke-width="2" fill="none"></path></g><g transform="translate(449.7727961024816 66.90544243303577) rotate(0 187.89437342038082 151.63409232716975)"><path d="M361.81 277.9 C366.29 283.17, 367.62 290.48, 376.46 304.07 M361.81 277.9 C365.64 285.93, 370.54 292.23, 376.46 304.07" stroke="#1e1e1e" stroke-width="2" fill="none"></path></g><g transform="translate(449.7727961024816 66.90544243303577) rotate(0 187.89437342038082 151.63409232716975)"><path d="M382.07 274.6 C382.34 280.5, 379.42 288.5, 376.46 304.07 M382.07 274.6 C380.36 283.34, 379.75 290.53, 376.46 304.07" stroke="#1e1e1e" stroke-width="2" fill="none"></path></g></g><mask id="mask-4xjIBIRbSsV3gFrY3KftW"><rect x="0" y="0" fill="#fff" width="925.5615429432432" height="470.1736270873753"></rect><rect x="677.7837492984183" y="148.48877643320145" fill="#000" width="163.6998748779297" height="50" opacity="1"></rect></mask><g transform="translate(677.7837492984186 148.48877643320145) rotate(0 -39.83862032745674 70.46199154061318)"><text x="81.84993743896484" y="0" font-family="Virgil, Segoe UI Emoji" font-size="20px" fill="#1e1e1e" text-anchor="middle" style="white-space: pre;" direction="ltr" dominant-baseline="text-before-edge">Train and deploy</text><text x="81.84993743896484" y="25" font-family="Virgil, Segoe UI Emoji" font-size="20px" fill="#1e1e1e" text-anchor="middle" style="white-space: pre;" direction="ltr" dominant-baseline="text-before-edge">models</text></g><g mask="url(#mask-GhFESMnx-wZo1l3SZXldb)" stroke-linecap="round"><g transform="translate(127.82506476455569 426.21224618023365) rotate(0 170.31362853180565 27.46991912787405)"><path d="M-0.41 -0.99 C27.87 8.15, 111.74 54.17, 168.66 54.52 C225.59 54.88, 312.37 10.22, 341.14 1.13 M1.57 1.11 C29.84 10.43, 111.49 56.13, 168 55.84 C224.51 55.55, 311.66 8.52, 340.65 -0.62" stroke="#1e1e1e" stroke-width="2" fill="none"></path></g><g transform="translate(127.82506476455569 426.21224618023365) rotate(0 170.31362853180565 27.46991912787405)"><path d="M318.47 19.57 C321.61 16.24, 327.3 11.88, 340.65 -0.62 M318.47 19.57 C326.52 10.9, 336.47 3.34, 340.65 -0.62" stroke="#1e1e1e" stroke-width="2" fill="none"></path></g><g transform="translate(127.82506476455569 426.21224618023365) rotate(0 170.31362853180565 27.46991912787405)"><path d="M310.67 0.59 C315.43 1.34, 322.79 1.03, 340.65 -0.62 M310.67 0.59 C321.9 -0.6, 334.93 -0.68, 340.65 -0.62" stroke="#1e1e1e" stroke-width="2" fill="none"></path></g></g><mask id="mask-GhFESMnx-wZo1l3SZXldb"><rect x="0" y="0" fill="#fff" width="568.452321828167" height="581.1520844359818"></rect><rect x="225.99118045026603" y="468.65208443598175" fill="#000" width="139.89990234375" height="25" opacity="1"></rect></mask><g transform="translate(225.99118045026603 468.65208443598175) rotate(0 72.20024158845638 -15.012259015448194)"><text x="69.949951171875" y="0" font-family="Virgil, Segoe UI Emoji" font-size="20px" fill="#1e1e1e" text-anchor="middle" style="white-space: pre;" direction="ltr" dominant-baseline="text-before-edge">Scraped Data</text></g><g mask="url(#mask-QIXeTloyvm1sfkGqjXvRo)" stroke-linecap="round"><g transform="translate(853.7934605314479 426.323092898836) rotate(0 -180.36555012803842 27.46991912787405)"><path d="M-0.17 -0.02 C-29.89 9.22, -117.13 55.56, -177.35 55.67 C-237.56 55.78, -330.95 9.94, -361.44 0.64 M-1.71 -1.07 C-31.63 7.81, -118.4 53.98, -177.93 53.93 C-237.47 53.88, -328.6 7.46, -358.92 -1.37" stroke="#1e1e1e" stroke-width="2" fill="none"></path></g><g transform="translate(853.7934605314479 426.323092898836) rotate(0 -180.36555012803842 27.46991912787405)"><path d="M-328.92 -0.84 C-340.48 0.07, -350.76 -2.47, -358.92 -1.37 M-328.92 -0.84 C-339.03 -1.99, -350.65 -0.26, -358.92 -1.37" stroke="#1e1e1e" stroke-width="2" fill="none"></path></g><g transform="translate(853.7934605314479 426.323092898836) rotate(0 -180.36555012803842 27.46991912787405)"><path d="M-336.28 18.32 C-345.05 11.88, -352.5 1.97, -358.92 -1.37 M-336.28 18.32 C-343.86 10.4, -352.88 5.37, -358.92 -1.37" stroke="#1e1e1e" stroke-width="2" fill="none"></path></g></g><mask id="mask-QIXeTloyvm1sfkGqjXvRo"><rect x="0" y="0" fill="#fff" width="1314.5245607875247" height="581.2629311545841"></rect><rect x="594.3052440289844" y="468.7629311545841" fill="#000" width="162.8998565673828" height="25" opacity="1"></rect></mask><g transform="translate(594.3052440289848 468.7629311545841) rotate(0 78.68439723012818 -15.289018159182305)"><text x="81.4499282836914" y="0" font-family="Virgil, Segoe UI Emoji" font-size="20px" fill="#1e1e1e" text-anchor="middle" style="white-space: pre;" direction="ltr" dominant-baseline="text-before-edge">Recommendations</text></g><g mask="url(#mask-DMgr7kPOddEOZUnNGRUPk)" stroke-linecap="round"><g transform="translate(345.112391440962 394.8965731645727) rotate(0 -17.031396385822404 -90.1014537803049)"><path d="M-0.2 -0.7 C-6.25 -15.87, -36.22 -60.58, -35.63 -90.41 C-35.05 -120.24, -2.9 -164.52, 3.29 -179.67 M-1.77 1.55 C-7.98 -13.5, -37.06 -58.49, -36.25 -89.04 C-35.44 -119.58, -3.18 -166.43, 3.1 -181.73" stroke="#1e1e1e" stroke-width="2" fill="none"></path></g><g transform="translate(345.112391440962 394.8965731645727) rotate(0 -17.031396385822404 -90.1014537803049)"><path d="M-1.03 -152.02 C-0.88 -161.55, 1.24 -171.37, 3.1 -181.73 M-1.03 -152.02 C-0.2 -163.03, 2.58 -172.43, 3.1 -181.73" stroke="#1e1e1e" stroke-width="2" fill="none"></path></g><g transform="translate(345.112391440962 394.8965731645727) rotate(0 -17.031396385822404 -90.1014537803049)"><path d="M-19.16 -161.62 C-12.5 -167.7, -3.92 -174.09, 3.1 -181.73 M-19.16 -161.62 C-12.14 -169.15, -3.12 -175.25, 3.1 -181.73" stroke="#1e1e1e" stroke-width="2" fill="none"></path></g></g><mask id="mask-DMgr7kPOddEOZUnNGRUPk"><rect x="0" y="0" fill="#fff" width="483.5704752242559" height="675.0994807251825"></rect><rect x="226.3820129779458" y="279.79507746846565" fill="#000" width="164.93988037109375" height="50" opacity="1"></rect></mask><g transform="translate(226.3820129779458 279.79507746846565) rotate(0 102.23992570700875 25.01076280126337)"><text x="82.46994018554688" y="0" font-family="Virgil, Segoe UI Emoji" font-size="20px" fill="#1e1e1e" text-anchor="middle" style="white-space: pre;" direction="ltr" dominant-baseline="text-before-edge">Product Data &amp;</text><text x="82.46994018554688" y="25" font-family="Virgil, Segoe UI Emoji" font-size="20px" fill="#1e1e1e" text-anchor="middle" style="white-space: pre;" direction="ltr" dominant-baseline="text-before-edge">Recommendations</text></g><g mask="url(#mask-pM37iOdyerSH-aU-rDPCm)" stroke-linecap="round"><g transform="translate(591.5176198797981 211.94667159538528) rotate(0 18.13017722293239 96.14479030021286)"><path d="M-0.12 0.62 C5.86 15.76, 36.79 58.03, 36.64 90.06 C36.49 122.08, 5.12 175.81, -1.02 192.77 M-1.65 -0.1 C4.14 14.79, 35.39 56.69, 35.89 88.49 C36.39 120.28, 7.32 173.31, 1.34 190.68" stroke="#1e1e1e" stroke-width="2" fill="none"></path></g><g transform="translate(591.5176198797981 211.94667159538528) rotate(0 18.13017722293239 96.14479030021286)"><path d="M3.04 160.73 C3.27 172.2, 3.37 180.71, 1.34 190.68 M3.04 160.73 C2.95 170.03, 2.33 180.21, 1.34 190.68" stroke="#1e1e1e" stroke-width="2" fill="none"></path></g><g transform="translate(591.5176198797981 211.94667159538528) rotate(0 18.13017722293239 96.14479030021286)"><path d="M21.9 168.83 C15.35 177.35, 8.63 182.92, 1.34 190.68 M21.9 168.83 C15.4 175.31, 8.37 182.73, 1.34 190.68" stroke="#1e1e1e" stroke-width="2" fill="none"></path></g></g><mask id="mask-pM37iOdyerSH-aU-rDPCm"><rect x="0" y="0" fill="#fff" width="727.7779743256629" height="504.236252195811"></rect><rect x="582.4080173554482" y="275.9493026227779" fill="#000" width="90.73991394042969" height="50" opacity="1"></rect></mask><g transform="translate(582.4080173554478 275.9493026227779) rotate(0 26.604409809844697 32.33271016952723)"><text x="45.369956970214844" y="0" font-family="Virgil, Segoe UI Emoji" font-size="20px" fill="#1e1e1e" text-anchor="middle" style="white-space: pre;" direction="ltr" dominant-baseline="text-before-edge">API </text><text x="45.369956970214844" y="25" font-family="Virgil, Segoe UI Emoji" font-size="20px" fill="#1e1e1e" text-anchor="middle" style="white-space: pre;" direction="ltr" dominant-baseline="text-before-edge">Requests</text></g></svg>